<?xml version="1.0" encoding="utf-8"?>
<!-- Generator: Adobe Illustrator 23.0.6, SVG Export Plug-In . SVG Version: 6.00 Build 0)  -->
<svg version="1.1" id="Ebene_1" xmlns="http://www.w3.org/2000/svg" xmlns:xlink="http://www.w3.org/1999/xlink" x="0px" y="0px"
	 viewBox="0 0 65.5 64.5" style="enable-background:new 0 0 65.5 64.5;" xml:space="preserve">
<style type="text/css">
	.st0{fill:#2F99A4;}
	.st1{display:none;}
	.st2{display:inline;}
	.st3{fill:none;}
	.st4{fill-rule:evenodd;clip-rule:evenodd;fill:#FFFFFF;}
	.st5{fill:#FFFFFF;}
</style>
<title>user_mod_textdb</title>
<rect x="0" class="st0" width="65.5" height="64.5"/>
<g id="Icons" class="st1">
	<g id="Rounded" class="st2">
		<g id="Editor">
			<polygon id="Path" class="st3" points="5.8,5 60.5,5 60.5,59.7 5.8,59.7 			"/>
			<path class="st4" d="M17.2,21h31.9c1.3,0,2.3-1,2.3-2.3c0-1.3-1-2.3-2.3-2.3H17.2c-1.3,0-2.3,1-2.3,2.3C14.9,20,15.9,21,17.2,21z
				 M44.2,30.1h-27c-1.3,0-2.3,1-2.3,2.3c0,1.3,1,2.3,2.3,2.3h27.6c2.3-0.1,4.3,1.5,4.8,3.8c0.4,2.5-1.2,4.8-3.7,5.3
				c-0.2,0-0.5,0.1-0.8,0.1H40V42c0-0.6-0.5-1.1-1.1-1.1c-0.3,0-0.6,0.1-0.8,0.3L34,45.3c-0.4,0.4-0.5,1.2,0,1.6c0,0,0,0,0,0L38,51
				c0.4,0.4,1.2,0.5,1.6,0c0.2-0.2,0.3-0.5,0.3-0.8v-1.9h4.5c5,0,9.1-4.1,9.1-9.1c0-0.3,0-0.6,0-0.9C53,33.6,48.9,30,44.2,30.1
				L44.2,30.1z M26.3,43.8h-9.1c-1.3-0.1-2.3,0.9-2.4,2.1c-0.1,1.3,0.9,2.3,2.1,2.4c0.1,0,0.2,0,0.3,0h9.1c1.3,0.1,2.3-0.9,2.4-2.1
				c0.1-1.3-0.9-2.3-2.1-2.4C26.5,43.8,26.4,43.8,26.3,43.8z"/>
		</g>
	</g>
</g>
<path class="st3" d="M14.4,8.3h42.2v42.2H14.4V8.3z"/>
<path class="st3" d="M20.8,77.1h24v24h-24V77.1z"/>
<path class="st5" d="M14,50.8l43.2-18.5L14,13.7l0,14.4l30.9,4.1l-30.9,4.1L14,50.8z"/>
</svg>
